<svg version="1" xmlns="http://www.w3.org/2000/svg" width="3768" height="3768" viewBox="0 0 2826.000000 2826.000000"><path d="M425 632.2c-50.9 100.2-99.5 196-108.1 213L301.4 876H1394V450H955.8l-438.3.1L425 632.2zM1653.2 452.7c-.5 1.6-37.2 104-81.5 227.8l-80.4 225-28.4 92-28.4 92v412l353.3.3 353.2.2v318.5l-132.8 69.8c-73 38.4-231.6 122.6-352.4 187L1436 2194.5V2377H1852.3l342.4-189.7 342.3-189.6V450h-882.8l-1 2.7zM2141 976.5V1246h-192.5c-105.9 0-192.5-.2-192.5-.5 0-.2 36.7-121.3 81.5-269s81.5-268.8 81.5-269.1c0-.2 50-.4 111-.4h111v269.5z"/><path d="M1860.5 974.7c-41.2 135.8-75 247.4-75.3 248-.3 1 3.9 1.3 19 1.3h19.5l.7-10.8c1.2-21-.7-14.2 59.1-211.2 48.1-158.3 53.8-176.4 61.6-192.9 16-33.9 37.8-51.3 73-58.2 24.6-4.7 81.8-4.3 99.2.7 1.5.5 1.7-.5 1.7-11.5V728h-183.7l-74.8 246.7zM1416 702.7V898H895.5c-286.3 0-520.5.4-520.5.8 0 1.8 7.9 8.3 13 10.6 8.3 3.8 16 5.5 30.4 6.6 9 .8 160 1 487.1.8 444.8-.4 474.5-.5 482.4-2.1 14.4-3 22.6-7 30.7-15.1 7.7-7.8 10.6-13.5 14-27.7 1.7-6.9 1.8-17.6 2.2-156.4.3-151.1.1-165.9-3.3-180.4-2-8.5-6.5-17.6-11.4-23.1l-4-4.5-.1 195.2zM2558.8 1258.9l-.3 751.4-349 193.6-349 193.6-182.5.5-182.5.5 5.6 4.3c6.9 5.2 15.1 8.6 26.1 10.9 7.5 1.5 22.3 1.7 158.8 2 156.5.4 172.5.1 193.7-3.7 28.6-5.1 47.5-13.1 100.3-42.2 72.5-40 516.6-286.2 528.5-293 7.7-4.4 18.5-11 24-14.6 11.7-7.8 27.4-23.1 32.4-31.4 4.2-7.2 8.4-19.5 10.8-31.3 1.7-8.6 1.8-40 2.1-721 .2-500.4 0-715.7-.8-724.5-1.8-21-5.6-32.7-13.9-42l-4-4.5-.3 751.4zM288 1739.5V2377l175.8-.2 175.7-.3.3-437.3.2-437.2h773v-400H288v637.5z"/><path d="M661 1960.5V2398l-156.7.2-156.8.3 5.6 4.3c7.1 5.4 15.4 8.7 27.1 10.9 8.5 1.7 18.9 1.8 125.8 1.8s117.3-.1 125.8-1.8c27.1-5.1 40.4-18.1 45.9-44.9 1.6-7.7 1.7-35 2.3-372.3.5-281.4.9-366 1.9-372.9 2-14.3 5.7-27.4 10.7-37.6 3.9-7.9 6.2-11 13.3-18.1 7.1-7.1 10.2-9.4 18.1-13.3 10.2-5 23.3-8.7 37.6-10.7 6.9-1 76-1.3 304.4-1.6 266.5-.4 298-.2 321 1.2 14 1 25.8 1.9 26.2 2.1.4.3 6.2 1 13 1.6 22.9 2.2 79.5 1.2 91.8-1.6 1.4-.3 12.8-1.3 25.4-2.1 19.5-1.3 61.3-1.5 275.5-1.5 265.6 0 283.6.3 298.4 4.6 1.5.5 1.7-.5 1.7-11.5V1523H661v437.5z"/></svg>